M48
; DRILL file KiCad 10.0.1 date 2026-05-12T19:57:25
; FORMAT={-:-/ absolute / metric / decimal}
; #@! TF.CreationDate,2026-05-12T19:57:25+07:00
; #@! TF.GenerationSoftware,Kicad,Pcbnew,10.0.1
; #@! TF.FileFunction,Plated,1,2,PTH
FMAT,2
METRIC
; #@! TA.AperFunction,Plated,PTH,ViaDrill
T1C0.610
; #@! TA.AperFunction,Plated,PTH,ComponentDrill
T2C0.700
; #@! TA.AperFunction,Plated,PTH,ComponentDrill
T3C0.780
; #@! TA.AperFunction,Plated,PTH,ComponentDrill
T4C0.800
; #@! TA.AperFunction,Plated,PTH,ComponentDrill
T5C0.850
; #@! TA.AperFunction,Plated,PTH,ComponentDrill
T6C1.020
; #@! TA.AperFunction,Plated,PTH,ComponentDrill
T7C1.050
; #@! TA.AperFunction,Plated,PTH,ComponentDrill
T8C1.200
; #@! TA.AperFunction,Plated,PTH,ComponentDrill
T9C1.300
%
G90
G05
T1
X54.5Y-52.5
X57.0Y-41.0
X63.5Y-62.5
X64.0Y-58.25
X66.5Y-51.143
X71.5Y-50.375
X75.0Y-76.0
X86.5Y-51.0
X95.0Y-59.25
X95.0Y-62.0
X95.0Y-64.0
X95.5Y-70.75
X98.0Y-50.75
X106.5Y-49.734
X109.5Y-81.0
X149.5Y-78.45
X149.5Y-83.85
X149.528Y-54.8
X149.528Y-60.2
T2
X110.854Y-34.0
X112.354Y-34.0
X113.854Y-34.0
X115.354Y-34.0
T3
X52.77Y-35.81
X55.31Y-35.81
X57.85Y-35.81
X60.39Y-35.81
X65.18Y-35.885
X67.72Y-35.885
X68.0Y-65.71
X68.0Y-68.25
X68.0Y-70.79
X68.0Y-73.33
X68.03Y-52.94
X68.03Y-55.48
X68.03Y-58.02
X68.03Y-60.56
X70.26Y-35.885
X72.8Y-35.885
X75.94Y-65.71
X75.94Y-68.25
X75.94Y-70.79
X75.94Y-73.33
X75.97Y-52.94
X75.97Y-55.48
X75.97Y-58.02
X75.97Y-60.56
X83.56Y-52.94
X83.56Y-55.48
X83.56Y-58.02
X83.56Y-60.56
X83.56Y-65.75
X83.56Y-68.29
X83.56Y-70.83
X83.56Y-73.37
X91.5Y-52.94
X91.5Y-55.48
X91.5Y-58.02
X91.5Y-60.56
X91.5Y-65.75
X91.5Y-68.29
X91.5Y-70.83
X91.5Y-73.37
X104.56Y-52.71
X104.56Y-55.25
X104.56Y-57.79
X104.56Y-60.33
X112.5Y-52.71
X112.5Y-55.25
X112.5Y-57.79
X112.5Y-60.33
T4
X80.815Y-33.0
X80.815Y-35.5
X88.665Y-33.0
X88.665Y-35.5
X126.5Y-36.63
X126.5Y-48.63
X126.5Y-53.78
X126.5Y-65.78
X126.5Y-70.605
X126.5Y-82.605
X126.5Y-87.755
X126.5Y-99.755
T5
X60.5Y-72.375
X62.0Y-72.375
X63.5Y-72.375
X107.0Y-66.0
X108.5Y-66.0
X110.0Y-66.0
T6
X105.5Y-92.5
X105.5Y-95.04
X105.5Y-97.58
X118.0Y-92.5
X118.0Y-95.04
X118.0Y-97.58
T7
X46.0Y-44.0
X46.0Y-46.5
X101.0Y-35.0
X103.5Y-35.0
T8
X138.7Y-36.63
X138.7Y-48.63
X138.7Y-53.78
X138.7Y-65.78
X138.7Y-70.605
X138.7Y-82.605
X138.7Y-87.755
X138.7Y-99.755
T9
X47.5Y-57.0
X47.5Y-62.08
X47.5Y-88.92
X47.5Y-94.0
X47.5Y-105.42
X47.5Y-110.5
X47.525Y-72.08
X47.525Y-77.16
X60.85Y-94.0
X65.93Y-94.0
X71.01Y-94.0
X76.09Y-94.0
X81.17Y-94.0
X86.25Y-94.0
X91.33Y-94.0
X96.41Y-94.0
X124.5Y-42.75
X124.5Y-59.9
X124.5Y-76.725
X124.5Y-93.875
M30
